<svg width="37" height="38" viewBox="0 0 37 38" fill="none" xmlns="http://www.w3.org/2000/svg">
<g clip-path="url(#clip0_18_1105)">
<path d="M25.4473 0.876953C25.5321 0.876953 25.617 0.876953 25.7067 0.876953C25.9148 3.4483 24.9333 5.3696 23.7405 6.76094C22.5701 8.14268 20.9674 9.48279 18.3753 9.27945C18.2024 6.74493 19.1854 4.96613 20.3766 3.57799C21.4814 2.28431 23.5068 1.13313 25.4473 0.876953Z" fill="black"/>
<path d="M33.2941 27.6406C33.2941 27.6662 33.2941 27.6886 33.2941 27.7126C32.5656 29.9189 31.5265 31.8098 30.2585 33.5646C29.1009 35.1577 27.6823 37.3015 25.1494 37.3015C22.9607 37.3015 21.5069 35.8942 19.2638 35.8558C16.891 35.8173 15.5861 37.0326 13.4166 37.3384C13.1685 37.3384 12.9203 37.3384 12.6769 37.3384C11.0839 37.1078 9.79819 35.8462 8.86155 34.7094C6.09968 31.3503 3.96543 27.0114 3.56836 21.4588C3.56836 20.9144 3.56836 20.3717 3.56836 19.8273C3.73647 15.8534 5.66738 12.6224 8.23393 11.0565C9.58844 10.224 11.4505 9.51469 13.5239 9.8317C14.4125 9.9694 15.3203 10.2736 16.1161 10.5746C16.8702 10.8644 17.8132 11.3784 18.7066 11.3511C19.3118 11.3335 19.9139 11.0181 20.5239 10.7956C22.3107 10.1503 24.0623 9.41062 26.371 9.75805C29.1457 10.1775 31.1151 11.4104 32.3319 13.3125C29.9847 14.8063 28.129 17.0574 28.446 20.9016C28.7278 24.3936 30.758 26.4366 33.2941 27.6406Z" fill="black"/>
</g>
<defs>
<clipPath id="clip0_18_1105">
<rect width="36.4615" height="36.4615" fill="white" transform="translate(0.200195 0.876953)"/>
</clipPath>
</defs>
</svg>
