<svg width="17" height="17" viewBox="0 0 17 17" fill="none" xmlns="http://www.w3.org/2000/svg">
<path d="M11.3471 6.52602V4.06984C11.348 3.6676 11.2696 3.26913 11.1166 2.89717C10.9635 2.52521 10.7386 2.18705 10.4548 1.90199C10.171 1.61693 9.8339 1.39056 9.46263 1.2358C9.09136 1.08103 8.69325 1.00091 8.29102 1.00001C7.88879 0.999103 7.49032 1.07743 7.11836 1.23053C6.7464 1.38362 6.40824 1.60847 6.12318 1.89225C5.54747 2.46538 5.22302 3.24372 5.22119 4.05606L5.22119 6.52602" stroke="#848484" stroke-miterlimit="10" stroke-linecap="round" stroke-linejoin="round"/>
<path d="M12.1322 16H4.44935C3.99652 16.0002 3.54809 15.9112 3.12965 15.7381C2.71122 15.565 2.33099 15.3111 2.01068 14.991C1.69036 14.6709 1.43624 14.2909 1.26283 13.8726C1.08942 13.4543 1.00011 13.0059 1 12.5531L1 8.08462C1.00011 7.63179 1.08942 7.18341 1.26283 6.7651C1.43624 6.34679 1.69036 5.96674 2.01068 5.64665C2.33099 5.32657 2.71122 5.07272 3.12965 4.8996C3.54809 4.72648 3.99652 4.63748 4.44935 4.6377H12.1322C12.5851 4.63748 13.0335 4.72648 13.4519 4.8996C13.8704 5.07272 14.2506 5.32657 14.5709 5.64665C14.8912 5.96674 15.1453 6.34679 15.3188 6.7651C15.4922 7.18341 15.5815 7.63179 15.5816 8.08462V12.5531C15.5815 13.0059 15.4922 13.4543 15.3188 13.8726C15.1453 14.2909 14.8912 14.6709 14.5709 14.991C14.2506 15.3111 13.8704 15.565 13.4519 15.7381C13.0335 15.9112 12.5851 16.0002 12.1322 16V16Z" stroke="#848484" stroke-miterlimit="10" stroke-linecap="round" stroke-linejoin="round"/>
</svg>
