<svg width="38" height="38" viewBox="0 0 38 38" fill="none" xmlns="http://www.w3.org/2000/svg">
<g clip-path="url(#clip0_18_1092)">
<path d="M37.1232 19.1077C37.1232 28.2074 30.4561 35.7497 21.7409 37.117V24.3776H25.9889L26.7971 19.1077H21.7409V15.688C21.7409 14.2459 22.4474 12.8409 24.712 12.8409H27.0108V8.35442C27.0108 8.35442 24.9242 7.99835 22.9295 7.99835C18.7656 7.99835 16.0438 10.5222 16.0438 15.0913V19.1077H11.4149V24.3776H16.0438V37.117C7.32867 35.7497 0.661621 28.2074 0.661621 19.1077C0.661621 9.0395 8.82416 0.876953 18.8924 0.876953C28.9606 0.876953 37.1232 9.0395 37.1232 19.1077Z" fill="#1877F2"/>
<path d="M25.989 24.3775L26.7973 19.1077H21.7411V15.6879C21.7411 14.2462 22.4474 12.8408 24.712 12.8408H27.0109V8.35436C27.0109 8.35436 24.9246 7.99829 22.93 7.99829C18.7657 7.99829 16.0439 10.5221 16.0439 15.0912V19.1077H11.415V24.3775H16.0439V37.1169C16.9721 37.2625 17.9234 37.3384 18.8925 37.3384C19.8616 37.3384 20.8129 37.2625 21.7411 37.1169V24.3775H25.989Z" fill="white"/>
</g>
<defs>
<clipPath id="clip0_18_1092">
<rect width="36.4615" height="36.4615" fill="white" transform="translate(0.661621 0.876953)"/>
</clipPath>
</defs>
</svg>
