<svg width="37" height="38" viewBox="0 0 37 38" fill="none" xmlns="http://www.w3.org/2000/svg">
<g clip-path="url(#clip0_18_1097)">
<path d="M35.516 15.938L20.6436 15.9373C19.9869 15.9373 19.4546 16.4695 19.4546 17.1262V21.8773C19.4546 22.5339 19.9869 23.0663 20.6436 23.0663H29.0188C28.1017 25.4463 26.39 27.4395 24.2061 28.706L27.7773 34.888C33.5059 31.5749 36.8927 25.7618 36.8927 19.2544C36.8927 18.3278 36.8244 17.6655 36.6878 16.9197C36.584 16.353 36.092 15.938 35.516 15.938Z" fill="#167EE6"/>
<path d="M18.6616 30.2046C14.5629 30.2046 10.9849 27.9652 9.06315 24.6514L2.88135 28.2145C6.02722 33.6668 11.9205 37.3383 18.6616 37.3383C21.9685 37.3383 25.0889 36.448 27.777 34.8963V34.8878L24.2058 28.7057C22.5723 29.6531 20.682 30.2046 18.6616 30.2046Z" fill="#12B347"/>
<path d="M27.777 34.8964V34.8879L24.2058 28.7058C22.5723 29.6532 20.6822 30.2047 18.6616 30.2047V37.3384C21.9686 37.3384 25.0891 36.448 27.777 34.8964Z" fill="#0F993E"/>
<path d="M7.56445 19.1079C7.56445 17.0876 8.11579 15.1975 9.063 13.5641L2.88121 10.001C1.32098 12.6805 0.430664 15.7925 0.430664 19.1079C0.430664 22.4233 1.32098 25.5352 2.88121 28.2148L9.063 24.6517C8.11579 23.0182 7.56445 21.1282 7.56445 19.1079Z" fill="#FFD500"/>
<path d="M18.6616 8.01074C21.3343 8.01074 23.7893 8.96045 25.7069 10.5402C26.18 10.9299 26.8676 10.9017 27.3009 10.4684L30.6672 7.10212C31.1588 6.61046 31.1238 5.80567 30.5986 5.35004C27.3858 2.5628 23.2055 0.876953 18.6616 0.876953C11.9205 0.876953 6.02722 4.54853 2.88135 10.0008L9.06315 13.5639C10.9849 10.2501 14.5629 8.01074 18.6616 8.01074Z" fill="#FF4B26"/>
<path d="M25.707 10.5402C26.18 10.9299 26.8677 10.9017 27.3009 10.4684L30.6672 7.10212C31.1588 6.61046 31.1238 5.80567 30.5986 5.35004C27.3858 2.56273 23.2056 0.876953 18.6616 0.876953V8.01074C21.3343 8.01074 23.7894 8.96045 25.707 10.5402Z" fill="#D93F21"/>
</g>
<defs>
<clipPath id="clip0_18_1097">
<rect width="36.4615" height="36.4615" fill="white" transform="translate(0.430664 0.876953)"/>
</clipPath>
</defs>
</svg>
