<svg width="20" height="17" viewBox="0 0 20 17" fill="none" xmlns="http://www.w3.org/2000/svg">
<g opacity="0.5">
<path d="M7.66723 10.6206C7.38734 10.3433 7.16542 10.0131 7.01441 9.64918C6.86339 9.28528 6.7863 8.89496 6.78761 8.50097C6.78647 7.90621 6.96185 7.32448 7.29154 6.82946C7.62123 6.33444 8.09041 5.94839 8.63966 5.7202C9.1889 5.49201 9.79351 5.43194 10.3769 5.5476C10.9603 5.66327 11.4963 5.94946 11.9169 6.36993" stroke="#848484" stroke-miterlimit="10" stroke-linecap="round" stroke-linejoin="round"/>
<path d="M12.7489 9.03442C12.64 9.63471 12.3507 10.1876 11.9198 10.6194C11.4888 11.0512 10.9365 11.3415 10.3364 11.4517" stroke="#848484" stroke-miterlimit="10" stroke-linecap="round" stroke-linejoin="round"/>
<path d="M4.70863 13.5733C3.06878 12.2167 1.79395 10.4718 1 8.49722C1.80553 6.51404 3.091 4.76196 4.74097 3.39833C6.16741 2.22703 7.95053 1.57698 9.79612 1.55542C11.6502 1.57928 13.4404 2.23587 14.8703 3.41639" stroke="#848484" stroke-miterlimit="10" stroke-linecap="round" stroke-linejoin="round"/>
<path d="M16.8785 5.5083C17.5651 6.43446 18.1397 7.43866 18.5902 8.49993C16.7197 12.8333 13.4142 15.4417 9.79404 15.4417C8.97627 15.4419 8.16384 15.3099 7.38818 15.0509" stroke="#848484" stroke-miterlimit="10" stroke-linecap="round" stroke-linejoin="round"/>
<path d="M17.2959 1L2.2959 16" stroke="#848484" stroke-miterlimit="10" stroke-linecap="round" stroke-linejoin="round"/>
</g>
</svg>
