<svg width="114" height="70" viewBox="0 0 114 70" fill="none" xmlns="http://www.w3.org/2000/svg">
<path d="M15.4248 26.0947H6.37273V0.347168H0V32.1672H15.4248V26.0947Z" fill="#64715B"/>
<path d="M30.2632 32.2614C39.2805 32.2614 46.6176 25.093 46.6176 16.2807C46.6176 7.46844 39.2829 0.250488 30.2632 0.250488C21.2434 0.250488 13.9561 7.44116 13.9561 16.2807C13.9561 25.1203 21.2708 32.2614 30.2632 32.2614ZM20.3313 16.2807C20.3313 10.791 24.7877 6.32289 30.2657 6.32289C35.7436 6.32289 40.2473 10.7885 40.2473 16.2807C40.2473 21.7729 35.771 26.2386 30.2657 26.2386C24.7604 26.2386 20.3313 21.7729 20.3313 16.2807Z" fill="#64715B"/>
<path d="M29.9351 37.9893C20.9427 37.9893 13.6279 45.1799 13.6279 54.0195C13.6279 62.8591 20.9427 70.0002 29.9351 70.0002C38.9275 70.0002 46.2894 62.8318 46.2894 54.0195C46.2894 45.2072 38.9523 37.9893 29.9351 37.9893ZM39.9167 54.017C39.9167 59.5067 35.4404 63.9749 29.9351 63.9749C24.4298 63.9749 20.0007 59.5092 20.0007 54.017C20.0007 48.5248 24.4571 44.0592 29.9351 44.0592C35.413 44.0592 39.9167 48.5248 39.9167 54.017Z" fill="#64715B"/>
<path d="M74.8446 43.9402C72.1205 40.4465 68.0294 38.1926 63.5978 38.0041C63.3741 37.9942 63.1505 37.9893 62.9268 37.9893C53.9343 37.9893 46.6196 45.1799 46.6196 54.0195C46.6196 62.8591 53.9343 70.0002 62.9268 70.0002C66.5903 70.0002 70.1098 68.7604 73.0004 66.4767L73.1917 69.9035H79.2836V56.8313C79.2836 52.1623 77.7227 47.6248 74.8471 43.9402H74.8446ZM72.9059 54.017C72.9059 59.5067 68.4296 63.9749 62.9243 63.9749C57.419 63.9749 52.9899 59.5092 52.9899 54.017C52.9899 48.5248 57.4463 44.0592 62.9243 44.0592C68.4022 44.0592 72.9059 48.5248 72.9059 54.017Z" fill="#64715B"/>
<path d="M107.795 65.703C108.048 65.47 108.292 65.227 108.525 64.9716C111.379 61.835 113.238 59.1422 113.238 50.6696V30.248H106.865V41.4531C103.957 39.2066 100.47 37.9867 96.8833 37.9867C87.8909 37.9867 80.5762 45.1774 80.5762 54.017C80.5762 62.8565 87.8909 69.9976 96.8833 69.9976C100.351 69.9976 103.686 68.8868 106.482 66.8337C106.8 66.6006 107.101 66.3403 107.392 66.0725L107.797 65.7006L107.795 65.703ZM106.853 54.4459C106.639 59.5067 102.491 63.6897 97.4202 63.9599C91.6986 64.2649 86.9464 59.6877 86.9464 54.017C86.9464 48.3462 91.4029 44.0591 96.8808 44.0591C102.359 44.0591 107.094 48.7603 106.853 54.4459Z" fill="#64715B"/>
<path d="M65.0696 32.1522L56.2735 16.0749L64.9901 0.0148773L56.8825 0L47.6191 16.0823L56.9297 32.1448L65.0696 32.1522Z" fill="#64715B"/>
<path d="M10.8788 38.5942C10.7819 38.619 10.6824 38.6413 10.5855 38.6661C6.65102 39.586 3.15149 42.1722 1.5086 45.8543C0.633713 47.8156 0.0595703 50.1786 0.0595703 52.2713C0.0595703 57.3495 0.0769686 69.9257 0.0769686 69.9257H7.65515V52.3234C7.65515 51.1035 7.95092 49.9951 8.54246 48.9934C9.134 47.9917 9.92935 47.1957 10.9335 46.6056C11.9401 46.0155 13.0511 45.7229 14.2739 45.7229C14.3386 45.7229 14.4057 45.7229 14.4703 45.7278V38.1057C13.2524 38.1652 11.9973 38.3041 10.8788 38.5917V38.5942Z" fill="#64715B"/>
<path d="M96.6573 16.0179C96.5355 13.5855 95.9216 11.2869 94.833 9.18429C91.9051 3.52845 86.1488 0.0124512 79.8108 0.0124512C78.5407 0.0124512 77.2632 0.153785 76.0081 0.433974C72.1233 1.30181 68.6585 3.53836 66.2526 6.72954C63.8467 9.91823 62.6537 13.8557 62.8923 17.8156L62.8972 17.8949C63.101 21.2473 64.5128 24.4136 66.874 26.8089L69.2749 29.2438L69.5881 29.5612L69.859 29.2066L71.6809 26.8287L74.129 23.6351L76.1622 26.2907L72.0114 31.7308L79.776 39.3231L87.3865 31.7308L83.3576 26.3427L84.4089 24.9616L85.4155 23.6375L88.7411 27.9767L90.1255 29.7819L90.4163 30.1637L90.7295 29.7992L92.8123 27.3693C94.4428 25.4674 95.601 23.2904 96.1652 21.0737C96.5778 19.4521 96.7418 17.7511 96.6548 16.0154L96.6573 16.0179ZM90.3393 20.7613L85.7287 14.7509L85.4205 14.3492L85.1123 14.7509L83.4098 16.9676L79.7735 21.701L77.0669 18.1702L74.4422 14.7459L74.134 14.3442L73.8258 14.7459L69.2302 20.7414C67.9477 17.7288 68.231 12.9606 71.3279 9.44216C73.4431 7.037 76.525 5.65837 79.7835 5.65837C81.9458 5.65837 84.0485 6.26834 85.8604 7.42381C90.3268 10.2703 92.181 15.9063 90.3417 20.7613H90.3393Z" fill="#64715B"/>
</svg>
