<svg width="19" height="17" viewBox="0 0 19 17" fill="none" xmlns="http://www.w3.org/2000/svg">
<path d="M14.3867 5.87573L10.6464 8.8866C10.303 9.15624 9.87909 9.3028 9.44253 9.3028C9.00597 9.3028 8.58205 9.15624 8.23871 8.8866L4.4668 5.87573" stroke="#64715B" stroke-miterlimit="10" stroke-linecap="round" stroke-linejoin="round"/>
<path d="M5.28571 1H13.552C14.1431 1.00647 14.7266 1.13344 15.2669 1.37314C15.8072 1.61285 16.2929 1.96024 16.6944 2.39408C17.0966 2.82873 17.4068 3.3401 17.6066 3.89754C17.8064 4.45498 17.8916 5.04702 17.857 5.63818V11.3618C17.8916 11.953 17.8064 12.545 17.6066 13.1024C17.4068 13.6599 17.0966 14.1713 16.6944 14.6059C16.2933 15.0393 15.8082 15.3865 15.2685 15.6261C14.7288 15.8658 14.146 15.993 13.5555 16H5.28571C2.72551 16.007 1 13.9246 1 11.3653V5.64168C1 3.08236 2.72551 1 5.28571 1Z" stroke="#64715B" stroke-miterlimit="10" stroke-linecap="round" stroke-linejoin="round"/>
</svg>
